<svg xmlns="http://www.w3.org/2000/svg" xmlns:xlink="http://www.w3.org/1999/xlink" width="500" zoomAndPan="magnify" viewBox="0 0 375 374.999991" height="500" preserveAspectRatio="xMidYMid meet" version="1.2"><defs><clipPath id="441bc27fac"><path d="M 131.117188 29.171875 L 243.617188 29.171875 L 243.617188 239.921875 L 131.117188 239.921875 Z M 131.117188 29.171875 "/></clipPath><clipPath id="8783805a85"><path d="M 199.054688 110.414062 C 205.394531 108.511719 211.355469 105.601562 216.675781 101.878906 C 217.597656 102.640625 218.519531 103.472656 219.375 104.34375 C 227.554688 112.570312 232.621094 123.902344 232.621094 136.441406 C 232.621094 148.957031 227.554688 160.289062 219.375 168.515625 C 212.117188 175.75 202.4375 180.585938 191.652344 181.605469 L 191.652344 136.910156 C 191.652344 100.738281 171.117188 68.15625 135.429688 62.878906 C 129.398438 78.996094 130.324219 96.855469 137.953125 112.234375 C 138.234375 112.785156 138.503906 113.320312 138.785156 113.84375 C 135.589844 120.714844 133.835938 128.378906 133.835938 136.457031 C 133.835938 151.273438 139.828125 164.671875 149.519531 174.382812 C 158.246094 183.160156 169.984375 188.894531 183.082031 189.9375 C 183.082031 197.613281 180.34375 204.207031 174.941406 209.660156 L 174.847656 209.726562 C 167.992188 216.625 167.992188 227.90625 174.847656 234.804688 C 181.734375 241.675781 192.988281 241.675781 199.871094 234.804688 C 206.757812 227.90625 206.757812 216.625 199.871094 209.726562 L 199.804688 209.660156 C 194.390625 204.207031 191.664062 197.613281 191.664062 189.9375 C 204.722656 188.894531 216.5 183.160156 225.230469 174.382812 C 234.90625 164.683594 240.910156 151.273438 240.910156 136.457031 C 240.910156 121.640625 234.921875 108.203125 225.230469 98.503906 C 224.589844 97.859375 223.933594 97.242188 223.238281 96.625 C 228.773438 91.550781 233.382812 85.441406 236.792969 78.539062 C 244.410156 63.175781 245.332031 45.300781 239.320312 29.1875 C 208.546875 33.742188 189.03125 58.578125 184.230469 88.523438 C 187.238281 93.171875 189.699219 98.222656 191.679688 103.578125 C 191.679688 102.375 191.703125 101.582031 191.703125 101.277344 C 192.960938 76.597656 207.476562 54.078125 230.214844 43 C 208.265625 58.03125 196.316406 83.898438 199.082031 110.425781 Z M 183.070312 178.214844 L 183.070312 137.085938 C 183.042969 135.972656 183.042969 135.238281 183.003906 134.957031 C 181.773438 110.277344 167.269531 87.757812 144.519531 76.664062 C 166.46875 91.695312 178.417969 117.578125 175.652344 144.09375 C 163.085938 140.300781 152.136719 132.664062 144.265625 122.402344 C 142.847656 126.8125 142.085938 131.527344 142.085938 136.417969 C 142.085938 148.929688 147.152344 160.261719 155.332031 168.488281 C 161.761719 174.933594 170.117188 179.460938 179.488281 181.082031 L 182.988281 187.21875 L 182.988281 181.550781 C 183.015625 179.945312 183.015625 179.058594 183.054688 178.1875 Z M 183.070312 178.214844 "/></clipPath><linearGradient x1="53.611663" gradientTransform="matrix(1.336722,0,0,1.339711,131.498612,29.172429)" y1="-0.414464" x2="51.389441" gradientUnits="userSpaceOnUse" y2="158.034706" id="0c064a14e8"><stop style="stop-color:#048569;stop-opacity:1;" offset="0"/><stop style="stop-color:#048569;stop-opacity:1;" offset="0.00744789"/><stop style="stop-color:#048569;stop-opacity:1;" offset="0.125"/><stop style="stop-color:#048569;stop-opacity:1;" offset="0.15625"/><stop style="stop-color:#058569;stop-opacity:1;" offset="0.160156"/><stop style="stop-color:#058669;stop-opacity:1;" offset="0.164062"/><stop style="stop-color:#068669;stop-opacity:1;" offset="0.167969"/><stop style="stop-color:#078669;stop-opacity:1;" offset="0.171875"/><stop style="stop-color:#078768;stop-opacity:1;" offset="0.175781"/><stop style="stop-color:#088768;stop-opacity:1;" offset="0.179687"/><stop style="stop-color:#098768;stop-opacity:1;" offset="0.183594"/><stop style="stop-color:#098768;stop-opacity:1;" offset="0.1875"/><stop style="stop-color:#0a8868;stop-opacity:1;" offset="0.191406"/><stop style="stop-color:#0b8868;stop-opacity:1;" offset="0.195312"/><stop style="stop-color:#0b8867;stop-opacity:1;" offset="0.199219"/><stop style="stop-color:#0c8967;stop-opacity:1;" offset="0.203125"/><stop style="stop-color:#0d8967;stop-opacity:1;" offset="0.207031"/><stop style="stop-color:#0e8967;stop-opacity:1;" offset="0.210937"/><stop style="stop-color:#0e8a67;stop-opacity:1;" offset="0.214844"/><stop style="stop-color:#0f8a67;stop-opacity:1;" offset="0.21875"/><stop style="stop-color:#108a67;stop-opacity:1;" offset="0.222656"/><stop style="stop-color:#108b66;stop-opacity:1;" offset="0.226562"/><stop style="stop-color:#118b66;stop-opacity:1;" offset="0.230469"/><stop style="stop-color:#128b66;stop-opacity:1;" offset="0.234375"/><stop style="stop-color:#138c66;stop-opacity:1;" offset="0.238281"/><stop style="stop-color:#138c66;stop-opacity:1;" offset="0.242188"/><stop style="stop-color:#148c66;stop-opacity:1;" offset="0.246094"/><stop style="stop-color:#158d65;stop-opacity:1;" offset="0.25"/><stop style="stop-color:#158d65;stop-opacity:1;" offset="0.253906"/><stop style="stop-color:#168d65;stop-opacity:1;" offset="0.257812"/><stop style="stop-color:#178e65;stop-opacity:1;" offset="0.261719"/><stop style="stop-color:#178e65;stop-opacity:1;" offset="0.265625"/><stop style="stop-color:#188e65;stop-opacity:1;" offset="0.269531"/><stop style="stop-color:#198e65;stop-opacity:1;" offset="0.273438"/><stop style="stop-color:#1a8f64;stop-opacity:1;" offset="0.277344"/><stop style="stop-color:#1a8f64;stop-opacity:1;" offset="0.28125"/><stop style="stop-color:#1b8f64;stop-opacity:1;" offset="0.285156"/><stop style="stop-color:#1c9064;stop-opacity:1;" offset="0.289062"/><stop style="stop-color:#1c9064;stop-opacity:1;" offset="0.292969"/><stop style="stop-color:#1d9064;stop-opacity:1;" offset="0.296875"/><stop style="stop-color:#1e9163;stop-opacity:1;" offset="0.300781"/><stop style="stop-color:#1e9163;stop-opacity:1;" offset="0.304687"/><stop style="stop-color:#1f9163;stop-opacity:1;" offset="0.308594"/><stop style="stop-color:#209263;stop-opacity:1;" offset="0.3125"/><stop style="stop-color:#219263;stop-opacity:1;" offset="0.316406"/><stop style="stop-color:#219263;stop-opacity:1;" offset="0.320312"/><stop style="stop-color:#229362;stop-opacity:1;" offset="0.324219"/><stop style="stop-color:#239362;stop-opacity:1;" offset="0.328125"/><stop style="stop-color:#239362;stop-opacity:1;" offset="0.332031"/><stop style="stop-color:#249462;stop-opacity:1;" offset="0.335938"/><stop style="stop-color:#259462;stop-opacity:1;" offset="0.339844"/><stop style="stop-color:#269462;stop-opacity:1;" offset="0.34375"/><stop style="stop-color:#269562;stop-opacity:1;" offset="0.347656"/><stop style="stop-color:#279561;stop-opacity:1;" offset="0.351562"/><stop style="stop-color:#289561;stop-opacity:1;" offset="0.355469"/><stop style="stop-color:#289561;stop-opacity:1;" offset="0.359375"/><stop style="stop-color:#299661;stop-opacity:1;" offset="0.363281"/><stop style="stop-color:#2a9661;stop-opacity:1;" offset="0.367188"/><stop style="stop-color:#2a9661;stop-opacity:1;" offset="0.371094"/><stop style="stop-color:#2b9760;stop-opacity:1;" offset="0.375"/><stop style="stop-color:#2c9760;stop-opacity:1;" offset="0.378906"/><stop style="stop-color:#2d9760;stop-opacity:1;" offset="0.382812"/><stop style="stop-color:#2d9860;stop-opacity:1;" offset="0.386719"/><stop style="stop-color:#2e9860;stop-opacity:1;" offset="0.390625"/><stop style="stop-color:#2f9860;stop-opacity:1;" offset="0.394531"/><stop style="stop-color:#2f9960;stop-opacity:1;" offset="0.398437"/><stop style="stop-color:#30995f;stop-opacity:1;" offset="0.402344"/><stop style="stop-color:#31995f;stop-opacity:1;" offset="0.40625"/><stop style="stop-color:#329a5f;stop-opacity:1;" offset="0.410156"/><stop style="stop-color:#329a5f;stop-opacity:1;" offset="0.414062"/><stop style="stop-color:#339a5f;stop-opacity:1;" offset="0.417969"/><stop style="stop-color:#349b5f;stop-opacity:1;" offset="0.421875"/><stop style="stop-color:#349b5e;stop-opacity:1;" offset="0.425781"/><stop style="stop-color:#359b5e;stop-opacity:1;" offset="0.429688"/><stop style="stop-color:#369c5e;stop-opacity:1;" offset="0.433594"/><stop style="stop-color:#369c5e;stop-opacity:1;" offset="0.4375"/><stop style="stop-color:#379c5e;stop-opacity:1;" offset="0.441406"/><stop style="stop-color:#389c5e;stop-opacity:1;" offset="0.445312"/><stop style="stop-color:#399d5e;stop-opacity:1;" offset="0.449219"/><stop style="stop-color:#399d5d;stop-opacity:1;" offset="0.453125"/><stop style="stop-color:#3a9d5d;stop-opacity:1;" offset="0.457031"/><stop style="stop-color:#3b9e5d;stop-opacity:1;" offset="0.460938"/><stop style="stop-color:#3b9e5d;stop-opacity:1;" offset="0.464844"/><stop style="stop-color:#3c9e5d;stop-opacity:1;" offset="0.46875"/><stop style="stop-color:#3d9f5d;stop-opacity:1;" offset="0.472656"/><stop style="stop-color:#3d9f5c;stop-opacity:1;" offset="0.476562"/><stop style="stop-color:#3e9f5c;stop-opacity:1;" offset="0.480469"/><stop style="stop-color:#3fa05c;stop-opacity:1;" offset="0.484375"/><stop style="stop-color:#40a05c;stop-opacity:1;" offset="0.488281"/><stop style="stop-color:#40a05c;stop-opacity:1;" offset="0.492187"/><stop style="stop-color:#41a15c;stop-opacity:1;" offset="0.496094"/><stop style="stop-color:#42a15c;stop-opacity:1;" offset="0.5"/><stop style="stop-color:#42a15b;stop-opacity:1;" offset="0.503906"/><stop style="stop-color:#43a25b;stop-opacity:1;" offset="0.507812"/><stop style="stop-color:#44a25b;stop-opacity:1;" offset="0.511719"/><stop style="stop-color:#45a25b;stop-opacity:1;" offset="0.515625"/><stop style="stop-color:#45a25b;stop-opacity:1;" offset="0.519531"/><stop style="stop-color:#46a35b;stop-opacity:1;" offset="0.523438"/><stop style="stop-color:#47a35a;stop-opacity:1;" offset="0.527344"/><stop style="stop-color:#47a35a;stop-opacity:1;" offset="0.53125"/><stop style="stop-color:#48a45a;stop-opacity:1;" offset="0.535156"/><stop style="stop-color:#49a45a;stop-opacity:1;" offset="0.539062"/><stop style="stop-color:#49a45a;stop-opacity:1;" offset="0.542969"/><stop style="stop-color:#4aa55a;stop-opacity:1;" offset="0.546875"/><stop style="stop-color:#4ba55a;stop-opacity:1;" offset="0.550781"/><stop style="stop-color:#4ca559;stop-opacity:1;" offset="0.554688"/><stop style="stop-color:#4ca659;stop-opacity:1;" offset="0.558594"/><stop style="stop-color:#4da659;stop-opacity:1;" offset="0.5625"/><stop style="stop-color:#4ea659;stop-opacity:1;" offset="0.566406"/><stop style="stop-color:#4ea759;stop-opacity:1;" offset="0.570312"/><stop style="stop-color:#4fa759;stop-opacity:1;" offset="0.574219"/><stop style="stop-color:#50a758;stop-opacity:1;" offset="0.578125"/><stop style="stop-color:#51a858;stop-opacity:1;" offset="0.582031"/><stop style="stop-color:#51a858;stop-opacity:1;" offset="0.585937"/><stop style="stop-color:#52a858;stop-opacity:1;" offset="0.589844"/><stop style="stop-color:#53a958;stop-opacity:1;" offset="0.59375"/><stop style="stop-color:#53a958;stop-opacity:1;" offset="0.597656"/><stop style="stop-color:#54a958;stop-opacity:1;" offset="0.601562"/><stop style="stop-color:#55a957;stop-opacity:1;" offset="0.605469"/><stop style="stop-color:#55aa57;stop-opacity:1;" offset="0.609375"/><stop style="stop-color:#56aa57;stop-opacity:1;" offset="0.613281"/><stop style="stop-color:#57aa57;stop-opacity:1;" offset="0.617188"/><stop style="stop-color:#58ab57;stop-opacity:1;" offset="0.621094"/><stop style="stop-color:#58ab57;stop-opacity:1;" offset="0.625"/><stop style="stop-color:#59ab56;stop-opacity:1;" offset="0.628906"/><stop style="stop-color:#5aac56;stop-opacity:1;" offset="0.632812"/><stop style="stop-color:#5aac56;stop-opacity:1;" offset="0.636719"/><stop style="stop-color:#5bac56;stop-opacity:1;" offset="0.640625"/><stop style="stop-color:#5cad56;stop-opacity:1;" offset="0.644531"/><stop style="stop-color:#5cad56;stop-opacity:1;" offset="0.648438"/><stop style="stop-color:#5dad56;stop-opacity:1;" offset="0.652344"/><stop style="stop-color:#5eae55;stop-opacity:1;" offset="0.65625"/><stop style="stop-color:#5fae55;stop-opacity:1;" offset="0.660156"/><stop style="stop-color:#5fae55;stop-opacity:1;" offset="0.664062"/><stop style="stop-color:#60af55;stop-opacity:1;" offset="0.667969"/><stop style="stop-color:#61af55;stop-opacity:1;" offset="0.671875"/><stop style="stop-color:#61af55;stop-opacity:1;" offset="0.675781"/><stop style="stop-color:#62b054;stop-opacity:1;" offset="0.679688"/><stop style="stop-color:#63b054;stop-opacity:1;" offset="0.683594"/><stop style="stop-color:#64b054;stop-opacity:1;" offset="0.6875"/><stop style="stop-color:#64b054;stop-opacity:1;" offset="0.691406"/><stop style="stop-color:#65b154;stop-opacity:1;" offset="0.695312"/><stop style="stop-color:#66b154;stop-opacity:1;" offset="0.699219"/><stop style="stop-color:#66b154;stop-opacity:1;" offset="0.703125"/><stop style="stop-color:#67b253;stop-opacity:1;" offset="0.707031"/><stop style="stop-color:#68b253;stop-opacity:1;" offset="0.710938"/><stop style="stop-color:#68b253;stop-opacity:1;" offset="0.714844"/><stop style="stop-color:#69b353;stop-opacity:1;" offset="0.71875"/><stop style="stop-color:#6ab353;stop-opacity:1;" offset="0.722656"/><stop style="stop-color:#6bb353;stop-opacity:1;" offset="0.726562"/><stop style="stop-color:#6bb452;stop-opacity:1;" offset="0.730469"/><stop style="stop-color:#6cb452;stop-opacity:1;" offset="0.734375"/><stop style="stop-color:#6db452;stop-opacity:1;" offset="0.738281"/><stop style="stop-color:#6db552;stop-opacity:1;" offset="0.742187"/><stop style="stop-color:#6eb552;stop-opacity:1;" offset="0.746094"/><stop style="stop-color:#6fb552;stop-opacity:1;" offset="0.75"/><stop style="stop-color:#70b651;stop-opacity:1;" offset="0.753906"/><stop style="stop-color:#70b651;stop-opacity:1;" offset="0.757812"/><stop style="stop-color:#71b651;stop-opacity:1;" offset="0.761719"/><stop style="stop-color:#72b751;stop-opacity:1;" offset="0.765625"/><stop style="stop-color:#72b751;stop-opacity:1;" offset="0.769531"/><stop style="stop-color:#73b751;stop-opacity:1;" offset="0.773437"/><stop style="stop-color:#74b751;stop-opacity:1;" offset="0.777344"/><stop style="stop-color:#74b850;stop-opacity:1;" offset="0.78125"/><stop style="stop-color:#75b850;stop-opacity:1;" offset="0.785156"/><stop style="stop-color:#76b850;stop-opacity:1;" offset="0.789062"/><stop style="stop-color:#77b950;stop-opacity:1;" offset="0.792969"/><stop style="stop-color:#77b950;stop-opacity:1;" offset="0.796875"/><stop style="stop-color:#78b950;stop-opacity:1;" offset="0.800781"/><stop style="stop-color:#79ba4f;stop-opacity:1;" offset="0.804688"/><stop style="stop-color:#79ba4f;stop-opacity:1;" offset="0.808594"/><stop style="stop-color:#7aba4f;stop-opacity:1;" offset="0.8125"/><stop style="stop-color:#7bbb4f;stop-opacity:1;" offset="0.816406"/><stop style="stop-color:#7cbb4f;stop-opacity:1;" offset="0.820312"/><stop style="stop-color:#7cbb4f;stop-opacity:1;" offset="0.824219"/><stop style="stop-color:#7dbc4f;stop-opacity:1;" offset="0.828125"/><stop style="stop-color:#7ebc4e;stop-opacity:1;" offset="0.832031"/><stop style="stop-color:#7ebc4e;stop-opacity:1;" offset="0.835938"/><stop style="stop-color:#7fbd4e;stop-opacity:1;" offset="0.839844"/><stop style="stop-color:#80bd4e;stop-opacity:1;" offset="0.84375"/><stop style="stop-color:#80bd4e;stop-opacity:1;" offset="0.847656"/><stop style="stop-color:#81be4e;stop-opacity:1;" offset="0.851562"/><stop style="stop-color:#82be4d;stop-opacity:1;" offset="0.855469"/><stop style="stop-color:#83be4d;stop-opacity:1;" offset="0.859375"/><stop style="stop-color:#83be4d;stop-opacity:1;" offset="0.863281"/><stop style="stop-color:#84bf4d;stop-opacity:1;" offset="0.867188"/><stop style="stop-color:#85bf4d;stop-opacity:1;" offset="0.871094"/><stop style="stop-color:#85bf4d;stop-opacity:1;" offset="0.875"/><stop style="stop-color:#86c04d;stop-opacity:1;" offset="0.878906"/><stop style="stop-color:#87c04c;stop-opacity:1;" offset="0.882812"/><stop style="stop-color:#87c04c;stop-opacity:1;" offset="0.886719"/><stop style="stop-color:#88c14c;stop-opacity:1;" offset="0.890625"/><stop style="stop-color:#89c14c;stop-opacity:1;" offset="0.894531"/><stop style="stop-color:#8ac14c;stop-opacity:1;" offset="0.898438"/><stop style="stop-color:#8ac24c;stop-opacity:1;" offset="0.902344"/><stop style="stop-color:#8bc24b;stop-opacity:1;" offset="0.90625"/><stop style="stop-color:#8cc24b;stop-opacity:1;" offset="0.910156"/><stop style="stop-color:#8cc34b;stop-opacity:1;" offset="0.914063"/><stop style="stop-color:#8dc34b;stop-opacity:1;" offset="0.917969"/><stop style="stop-color:#8ec34b;stop-opacity:1;" offset="0.921875"/><stop style="stop-color:#8fc44b;stop-opacity:1;" offset="0.925781"/><stop style="stop-color:#8fc44b;stop-opacity:1;" offset="0.929688"/><stop style="stop-color:#90c44a;stop-opacity:1;" offset="0.933594"/><stop style="stop-color:#91c54a;stop-opacity:1;" offset="0.9375"/><stop style="stop-color:#91c54a;stop-opacity:1;" offset="0.941406"/><stop style="stop-color:#92c54a;stop-opacity:1;" offset="0.945313"/><stop style="stop-color:#93c54a;stop-opacity:1;" offset="0.949219"/><stop style="stop-color:#93c64a;stop-opacity:1;" offset="0.953125"/><stop style="stop-color:#94c649;stop-opacity:1;" offset="0.957031"/><stop style="stop-color:#95c649;stop-opacity:1;" offset="0.960938"/><stop style="stop-color:#96c749;stop-opacity:1;" offset="0.964844"/><stop style="stop-color:#96c749;stop-opacity:1;" offset="0.96875"/><stop style="stop-color:#97c749;stop-opacity:1;" offset="0.972656"/><stop style="stop-color:#98c849;stop-opacity:1;" offset="0.976562"/><stop style="stop-color:#98c849;stop-opacity:1;" offset="0.980469"/><stop style="stop-color:#99c848;stop-opacity:1;" offset="0.984375"/><stop style="stop-color:#9ac948;stop-opacity:1;" offset="0.988281"/><stop style="stop-color:#9bc948;stop-opacity:1;" offset="0.992188"/><stop style="stop-color:#9bc948;stop-opacity:1;" offset="0.996094"/><stop style="stop-color:#9cca48;stop-opacity:1;" offset="1"/></linearGradient></defs><g id="a72482e28e"><g clip-rule="nonzero" clip-path="url(#441bc27fac)"><g clip-rule="evenodd" clip-path="url(#8783805a85)"><path style=" stroke:none;fill-rule:nonzero;fill:url(#0c064a14e8);" d="M 131.117188 29.1875 L 131.117188 239.921875 L 243.617188 239.921875 L 243.617188 29.1875 Z M 131.117188 29.1875 "/></g></g><g style="fill:#a8cf45;fill-opacity:1;"><g transform="translate(92.679998, 296.79154)"><path style="stroke:none" d="M 11.578125 0 L 3 0 L 3 -32.140625 C 3 -37.523438 5.53125 -40.21875 10.59375 -40.21875 L 15.125 -40.21875 C 18.101562 -40.21875 20.222656 -39.238281 21.484375 -37.28125 C 22.671875 -39.238281 24.796875 -40.21875 27.859375 -40.21875 L 32.390625 -40.21875 C 37.441406 -40.21875 39.96875 -37.523438 39.96875 -32.140625 L 39.96875 0 L 31.40625 0 L 31.40625 -32.875 C 31.40625 -33.195312 31.289062 -33.476562 31.0625 -33.71875 C 30.84375 -33.96875 30.566406 -34.09375 30.234375 -34.09375 L 26.9375 -34.09375 C 26.613281 -34.09375 26.335938 -33.96875 26.109375 -33.71875 C 25.878906 -33.476562 25.765625 -33.195312 25.765625 -32.875 L 25.765625 0 L 17.203125 0 L 17.203125 -32.875 C 17.203125 -33.195312 17.085938 -33.476562 16.859375 -33.71875 C 16.640625 -33.96875 16.367188 -34.09375 16.046875 -34.09375 L 12.734375 -34.09375 C 12.410156 -34.09375 12.132812 -33.96875 11.90625 -33.71875 C 11.6875 -33.476562 11.578125 -33.195312 11.578125 -32.875 Z M 11.578125 0 "/></g></g><g style="fill:#a8cf45;fill-opacity:1;"><g transform="translate(138.350853, 296.79154)"><path style="stroke:none" d="M 18.796875 -40.21875 C 23.859375 -40.21875 26.390625 -37.523438 26.390625 -32.140625 L 26.390625 0 L 17.8125 0 L 17.8125 -13.28125 L 11.625 -13.28125 L 11.625 0 L 3.0625 0 L 3.0625 -32.140625 C 3.0625 -37.523438 5.59375 -40.21875 10.65625 -40.21875 Z M 11.625 -19.890625 L 17.8125 -19.890625 L 17.8125 -33.1875 C 17.8125 -33.507812 17.695312 -33.789062 17.46875 -34.03125 C 17.25 -34.28125 16.976562 -34.40625 16.65625 -34.40625 L 12.796875 -34.40625 C 12.472656 -34.40625 12.195312 -34.28125 11.96875 -34.03125 C 11.738281 -33.789062 11.625 -33.507812 11.625 -33.1875 Z M 11.625 -19.890625 "/></g></g><g style="fill:#a8cf45;fill-opacity:1;"><g transform="translate(170.920482, 296.79154)"><path style="stroke:none" d="M 0.796875 -32.328125 L 0.796875 -39.609375 L 22.21875 -39.609375 L 22.21875 -32.328125 L 15.796875 -32.328125 L 15.796875 0 L 7.21875 0 L 7.21875 -32.328125 Z M 0.796875 -32.328125 "/></g></g><g style="fill:#a8cf45;fill-opacity:1;"><g transform="translate(196.878271, 296.79154)"><path style="stroke:none" d="M 25.03125 -29.203125 L 16.890625 -29.203125 L 16.890625 -32.328125 C 16.890625 -32.648438 16.773438 -32.929688 16.546875 -33.171875 C 16.328125 -33.421875 16.054688 -33.546875 15.734375 -33.546875 L 12.359375 -33.546875 C 12.035156 -33.546875 11.757812 -33.421875 11.53125 -33.171875 C 11.3125 -32.929688 11.203125 -32.648438 11.203125 -32.328125 L 11.203125 -25.28125 C 11.203125 -24.957031 11.3125 -24.671875 11.53125 -24.421875 C 11.757812 -24.179688 12.035156 -24.0625 12.359375 -24.0625 L 17.875 -24.0625 C 22.9375 -23.976562 25.46875 -21.285156 25.46875 -15.984375 L 25.46875 -7.46875 C 25.46875 -2.082031 22.9375 0.609375 17.875 0.609375 L 10.65625 0.609375 C 5.59375 0.609375 3.0625 -2.082031 3.0625 -7.46875 L 3.0625 -11.578125 L 11.203125 -11.578125 L 11.203125 -7.15625 C 11.203125 -6.832031 11.3125 -6.546875 11.53125 -6.296875 C 11.757812 -6.054688 12.035156 -5.9375 12.359375 -5.9375 L 16.15625 -5.9375 C 16.488281 -5.9375 16.765625 -6.054688 16.984375 -6.296875 C 17.210938 -6.546875 17.328125 -6.832031 17.328125 -7.15625 L 17.328125 -14.9375 C 17.328125 -15.257812 17.210938 -15.539062 16.984375 -15.78125 C 16.765625 -16.03125 16.488281 -16.15625 16.15625 -16.15625 L 10.65625 -16.15625 C 5.59375 -16.15625 3.0625 -18.851562 3.0625 -24.25 L 3.0625 -32.140625 C 3.0625 -37.523438 5.59375 -40.21875 10.65625 -40.21875 L 17.453125 -40.21875 C 22.503906 -40.21875 25.03125 -37.523438 25.03125 -32.140625 Z M 25.03125 -29.203125 "/></g></g><g style="fill:#a8cf45;fill-opacity:1;"><g transform="translate(227.794944, 296.79154)"><path style="stroke:none" d="M 17.203125 -39.609375 L 25.765625 -39.609375 L 25.765625 -7.46875 C 25.765625 -2.082031 23.238281 0.609375 18.1875 0.609375 L 10.59375 0.609375 C 5.53125 0.609375 3 -2.082031 3 -7.46875 L 3 -39.609375 L 11.578125 -39.609375 L 11.578125 -6.734375 C 11.578125 -6.410156 11.6875 -6.125 11.90625 -5.875 C 12.132812 -5.632812 12.410156 -5.515625 12.734375 -5.515625 L 16.046875 -5.515625 C 16.367188 -5.515625 16.640625 -5.632812 16.859375 -5.875 C 17.085938 -6.125 17.203125 -6.410156 17.203125 -6.734375 Z M 17.203125 -39.609375 "/></g></g><g style="fill:#a8cf45;fill-opacity:1;"><g transform="translate(259.262597, 296.79154)"><path style="stroke:none" d="M 11.625 -7.09375 L 21.125 -7.09375 L 21.125 0 L 3.0625 0 L 3.0625 -39.609375 L 21.125 -39.609375 L 21.125 -32.625 L 11.625 -32.625 L 11.625 -23.328125 L 20.515625 -23.328125 L 20.515625 -16.59375 L 11.625 -16.59375 Z M 11.625 -7.09375 "/></g></g><g style="fill:#048569;fill-opacity:1;"><g transform="translate(43.702303, 333.040802)"><path style="stroke:none" d="M 6.21875 -8.671875 L 6.21875 0 L 1.640625 0 L 1.640625 -21.171875 L 9.78125 -21.171875 C 12.488281 -21.171875 13.84375 -19.734375 13.84375 -16.859375 L 13.84375 -14.40625 C 13.84375 -12.65625 13.222656 -11.539062 11.984375 -11.0625 C 13.078125 -10.664062 13.625 -9.769531 13.625 -8.375 L 13.625 0 L 9.03125 0 L 9.03125 -8.015625 C 9.03125 -8.453125 8.820312 -8.671875 8.40625 -8.671875 Z M 6.21875 -18.0625 L 6.21875 -11.875 L 8.640625 -11.875 C 8.816406 -11.875 8.960938 -11.941406 9.078125 -12.078125 C 9.203125 -12.210938 9.265625 -12.363281 9.265625 -12.53125 L 9.265625 -17.421875 C 9.265625 -17.585938 9.203125 -17.734375 9.078125 -17.859375 C 8.960938 -17.992188 8.816406 -18.0625 8.640625 -18.0625 Z M 6.21875 -18.0625 "/></g></g><g style="fill:#048569;fill-opacity:1;"><g transform="translate(68.548573, 333.040802)"><path style="stroke:none" d="M 6.21875 -3.796875 L 11.296875 -3.796875 L 11.296875 0 L 1.640625 0 L 1.640625 -21.171875 L 11.296875 -21.171875 L 11.296875 -17.453125 L 6.21875 -17.453125 L 6.21875 -12.46875 L 10.96875 -12.46875 L 10.96875 -8.875 L 6.21875 -8.875 Z M 6.21875 -3.796875 "/></g></g><g style="fill:#048569;fill-opacity:1;"><g transform="translate(90.547237, 333.040802)"><path style="stroke:none" d="M 9.53125 -3.46875 L 9.53125 -6.75 L 13.875 -6.75 L 13.875 -4 C 13.875 -1.113281 12.523438 0.328125 9.828125 0.328125 L 5.703125 0.328125 C 2.992188 0.328125 1.640625 -1.113281 1.640625 -4 L 1.640625 -17.1875 C 1.640625 -20.0625 2.992188 -21.5 5.703125 -21.5 L 9.828125 -21.5 C 12.523438 -21.5 13.875 -20.0625 13.875 -17.1875 L 13.875 -15.1875 L 9.53125 -15.1875 L 9.53125 -17.734375 C 9.53125 -17.910156 9.46875 -18.0625 9.34375 -18.1875 C 9.226562 -18.320312 9.082031 -18.390625 8.90625 -18.390625 L 6.84375 -18.390625 C 6.664062 -18.390625 6.515625 -18.320312 6.390625 -18.1875 C 6.273438 -18.0625 6.21875 -17.910156 6.21875 -17.734375 L 6.21875 -3.46875 C 6.21875 -3.289062 6.273438 -3.132812 6.390625 -3 C 6.515625 -2.875 6.664062 -2.8125 6.84375 -2.8125 L 8.90625 -2.8125 C 9.082031 -2.8125 9.226562 -2.875 9.34375 -3 C 9.46875 -3.132812 9.53125 -3.289062 9.53125 -3.46875 Z M 9.53125 -3.46875 "/></g></g><g style="fill:#048569;fill-opacity:1;"><g transform="translate(115.229847, 333.040802)"><path style="stroke:none" d="M 13.90625 -21.171875 L 9.359375 -7.71875 L 9.359375 0 L 4.78125 0 L 4.78125 -7.71875 L 0.234375 -21.171875 L 4.546875 -21.171875 L 7.078125 -12.34375 L 9.59375 -21.171875 Z M 13.90625 -21.171875 "/></g></g><g style="fill:#048569;fill-opacity:1;"><g transform="translate(139.15965, 333.040802)"><path style="stroke:none" d="M 9.53125 -3.46875 L 9.53125 -6.75 L 13.875 -6.75 L 13.875 -4 C 13.875 -1.113281 12.523438 0.328125 9.828125 0.328125 L 5.703125 0.328125 C 2.992188 0.328125 1.640625 -1.113281 1.640625 -4 L 1.640625 -17.1875 C 1.640625 -20.0625 2.992188 -21.5 5.703125 -21.5 L 9.828125 -21.5 C 12.523438 -21.5 13.875 -20.0625 13.875 -17.1875 L 13.875 -15.1875 L 9.53125 -15.1875 L 9.53125 -17.734375 C 9.53125 -17.910156 9.46875 -18.0625 9.34375 -18.1875 C 9.226562 -18.320312 9.082031 -18.390625 8.90625 -18.390625 L 6.84375 -18.390625 C 6.664062 -18.390625 6.515625 -18.320312 6.390625 -18.1875 C 6.273438 -18.0625 6.21875 -17.910156 6.21875 -17.734375 L 6.21875 -3.46875 C 6.21875 -3.289062 6.273438 -3.132812 6.390625 -3 C 6.515625 -2.875 6.664062 -2.8125 6.84375 -2.8125 L 8.90625 -2.8125 C 9.082031 -2.8125 9.226562 -2.875 9.34375 -3 C 9.46875 -3.132812 9.53125 -3.289062 9.53125 -3.46875 Z M 9.53125 -3.46875 "/></g></g><g style="fill:#048569;fill-opacity:1;"><g transform="translate(163.84226, 333.040802)"><path style="stroke:none" d="M 6.21875 -3.859375 L 11.234375 -3.859375 L 11.234375 0 L 1.640625 0 L 1.640625 -21.171875 L 6.21875 -21.171875 Z M 6.21875 -3.859375 "/></g></g><g style="fill:#048569;fill-opacity:1;"><g transform="translate(185.284499, 333.040802)"><path style="stroke:none" d="M 6.21875 -21.171875 L 6.21875 0 L 1.640625 0 L 1.640625 -21.171875 Z M 6.21875 -21.171875 "/></g></g><g style="fill:#048569;fill-opacity:1;"><g transform="translate(202.962666, 333.040802)"><path style="stroke:none" d="M 13.78125 0 L 9.203125 0 L 9.203125 -17.578125 C 9.203125 -17.753906 9.140625 -17.90625 9.015625 -18.03125 C 8.898438 -18.164062 8.753906 -18.234375 8.578125 -18.234375 L 6.8125 -18.234375 C 6.632812 -18.234375 6.484375 -18.164062 6.359375 -18.03125 C 6.242188 -17.90625 6.1875 -17.753906 6.1875 -17.578125 L 6.1875 0 L 1.609375 0 L 1.609375 -17.1875 C 1.609375 -20.0625 2.957031 -21.5 5.65625 -21.5 L 9.71875 -21.5 C 12.425781 -21.5 13.78125 -20.0625 13.78125 -17.1875 Z M 13.78125 0 "/></g></g><g style="fill:#048569;fill-opacity:1;"><g transform="translate(227.874393, 333.040802)"><path style="stroke:none" d="M 7.828125 -8.40625 L 7.828125 -11.78125 L 13.875 -11.78125 L 13.875 -4 C 13.875 -1.113281 12.523438 0.328125 9.828125 0.328125 L 5.703125 0.328125 C 2.992188 0.328125 1.640625 -1.113281 1.640625 -4 L 1.640625 -17.1875 C 1.640625 -20.0625 2.992188 -21.5 5.703125 -21.5 L 9.828125 -21.5 C 12.523438 -21.5 13.875 -20.0625 13.875 -17.1875 L 13.875 -15.1875 L 9.53125 -15.1875 L 9.53125 -17.734375 C 9.53125 -17.910156 9.46875 -18.0625 9.34375 -18.1875 C 9.226562 -18.320312 9.082031 -18.390625 8.90625 -18.390625 L 6.84375 -18.390625 C 6.664062 -18.390625 6.515625 -18.320312 6.390625 -18.1875 C 6.273438 -18.0625 6.21875 -17.910156 6.21875 -17.734375 L 6.21875 -3.46875 C 6.21875 -3.289062 6.273438 -3.132812 6.390625 -3 C 6.515625 -2.875 6.664062 -2.8125 6.84375 -2.8125 L 8.90625 -2.8125 C 9.082031 -2.8125 9.226562 -2.875 9.34375 -3 C 9.46875 -3.132812 9.53125 -3.289062 9.53125 -3.46875 L 9.53125 -8.40625 Z M 7.828125 -8.40625 "/></g></g><g style="fill:#048569;fill-opacity:1;"><g transform="translate(252.327886, 333.040802)"><path style="stroke:none" d=""/></g></g><g style="fill:#048569;fill-opacity:1;"><g transform="translate(268.631352, 333.040802)"><path style="stroke:none" d="M 6.1875 0 L 1.609375 0 L 1.609375 -17.1875 C 1.609375 -20.0625 2.957031 -21.5 5.65625 -21.5 L 8.078125 -21.5 C 9.671875 -21.5 10.804688 -20.976562 11.484375 -19.9375 C 12.117188 -20.976562 13.253906 -21.5 14.890625 -21.5 L 17.3125 -21.5 C 20.019531 -21.5 21.375 -20.0625 21.375 -17.1875 L 21.375 0 L 16.796875 0 L 16.796875 -17.578125 C 16.796875 -17.753906 16.734375 -17.90625 16.609375 -18.03125 C 16.492188 -18.164062 16.347656 -18.234375 16.171875 -18.234375 L 14.40625 -18.234375 C 14.226562 -18.234375 14.078125 -18.164062 13.953125 -18.03125 C 13.835938 -17.90625 13.78125 -17.753906 13.78125 -17.578125 L 13.78125 0 L 9.203125 0 L 9.203125 -17.578125 C 9.203125 -17.753906 9.140625 -17.90625 9.015625 -18.03125 C 8.898438 -18.164062 8.753906 -18.234375 8.578125 -18.234375 L 6.8125 -18.234375 C 6.632812 -18.234375 6.484375 -18.164062 6.359375 -18.03125 C 6.242188 -17.90625 6.1875 -17.753906 6.1875 -17.578125 Z M 6.1875 0 "/></g></g><g style="fill:#048569;fill-opacity:1;"><g transform="translate(301.202125, 333.040802)"><path style="stroke:none" d="M 10.046875 -21.5 C 12.753906 -21.5 14.109375 -20.0625 14.109375 -17.1875 L 14.109375 0 L 9.53125 0 L 9.53125 -7.109375 L 6.21875 -7.109375 L 6.21875 0 L 1.640625 0 L 1.640625 -17.1875 C 1.640625 -20.0625 2.992188 -21.5 5.703125 -21.5 Z M 6.21875 -10.640625 L 9.53125 -10.640625 L 9.53125 -17.734375 C 9.53125 -17.910156 9.46875 -18.0625 9.34375 -18.1875 C 9.226562 -18.320312 9.082031 -18.390625 8.90625 -18.390625 L 6.84375 -18.390625 C 6.664062 -18.390625 6.515625 -18.320312 6.390625 -18.1875 C 6.273438 -18.0625 6.21875 -17.910156 6.21875 -17.734375 Z M 6.21875 -10.640625 "/></g></g><g style="fill:#048569;fill-opacity:1;"><g transform="translate(326.768505, 333.040802)"><path style="stroke:none" d="M 9.890625 -21.171875 C 12.585938 -21.171875 13.9375 -19.734375 13.9375 -16.859375 L 13.9375 -12.640625 C 13.9375 -9.753906 12.585938 -8.3125 9.890625 -8.3125 L 6.1875 -8.3125 L 6.1875 0 L 1.609375 0 L 1.609375 -21.171875 Z M 9.359375 -12.109375 L 9.359375 -17.375 C 9.359375 -17.550781 9.296875 -17.703125 9.171875 -17.828125 C 9.054688 -17.960938 8.910156 -18.03125 8.734375 -18.03125 L 6.1875 -18.03125 L 6.1875 -11.453125 L 8.734375 -11.453125 C 8.910156 -11.453125 9.054688 -11.515625 9.171875 -11.640625 C 9.296875 -11.773438 9.359375 -11.929688 9.359375 -12.109375 Z M 9.359375 -12.109375 "/></g></g></g></svg>